# xmcd
#
# Track frame offsets: 
#        150
#        13755
#        28384
#        43361
#        58171
#        71483
#        84979
#        95961
#        109912
#        122893
#        137114
#        151091
#        163235
#        178133
#        190702
#        201105
#        212778
#        227290
#        240947
#        254601
#        264611
#        277722
#        291818
#        306266
#
# Disc length: 4283 seconds
#
# Revision: 1
# Processed by: cddbd v1.5.2PL0 Copyright (c) Steve Scherf et al.
# Submitted via: ExactAudioCopy v0.99pb3
#
DISCID=6510b918
DTITLE=Various Artist - One For My Baby (Classic Female Vocals) [CD2)
DYEAR=2004
DGENRE=Soul
TTITLE0=Anita O'Day - Let Me Off Uptown
TTITLE1=Helen Forrest (with Benny Goodman) - Smoke Gets In Your Eyes
TTITLE2=Dinah Washington - Cold Cold Heart
TTITLE3=Dinah Shore (with Frank Sinatra) - Tea For Two
TTITLE4=Lena Horne - The Lady Is A Tramp
TTITLE5=Teresa Brewer - Till I Waltz With You Again
TTITLE6=Georgia Gibbs - Kiss Of Fire
TTITLE7=Jo Stafford - You Belong To Me
TTITLE8=Joni James - Why Don't You Believe Me?
TTITLE9=Carmen Miranda (with The Andrew Sisters) - The Matador
TTITLE10=Anita O'Day - And Her Tears Flowed Like Wine
TTITLE11=Helen Ward (with Benny Goodman) - These Foolish Things
TTITLE12=Anne Brown - I Loves You Porgy
TTITLE13=Helen Humes (with Count Basie) - Blame It On My Last Affair
TTITLE14=The Boswell Sisters - Everybody Loves My Baby
TTITLE15=Alice Faye - Slumming On Park Avenue
TTITLE16=Helen Forrest (with Artie Shaw) - All The Things You Are
TTITLE17=Patti Page - Tenessee Waltz
TTITLE18=Ann Lerner - And The Angels Sing
TTITLE19=Dinah Washington - Wheel Of Fortune
TTITLE20=April Stevens - I´m In Love Again
TTITLE21=Helen O'Connell (with Jimmy Dorsey) - All Of Me
TTITLE22=Mildred Bailey - Rockin' Chair
TTITLE23=Lena Horne - One For My Baby
EXTD=YEAR: 2004
EXTT0=
EXTT1=
EXTT2=
EXTT3=
EXTT4=
EXTT5=
EXTT6=
EXTT7=
EXTT8=
EXTT9=
EXTT10=
EXTT11=
EXTT12=
EXTT13=
EXTT14=
EXTT15=
EXTT16=
EXTT17=
EXTT18=
EXTT19=
EXTT20=
EXTT21=
EXTT22=
EXTT23=
PLAYORDER=
